<?xml version="1.0" encoding="UTF-8" standalone="no"?>
<!-- Created with Inkscape (http://www.inkscape.org/) -->

<svg
   width="243mm"
   height="91mm"
   viewBox="0 0 243 91"
   version="1.1"
   id="svg5"
   xml:space="preserve"
   sodipodi:docname="FunnyWarsLogo.svg"
   inkscape:version="1.2.1 (9c6d41e410, 2022-07-14)"
   xmlns:inkscape="http://www.inkscape.org/namespaces/inkscape"
   xmlns:sodipodi="http://sodipodi.sourceforge.net/DTD/sodipodi-0.dtd"
   xmlns="http://www.w3.org/2000/svg"
   xmlns:svg="http://www.w3.org/2000/svg"><sodipodi:namedview
     id="namedview7"
     pagecolor="#ffffff"
     bordercolor="#000000"
     borderopacity="0.25"
     inkscape:showpageshadow="2"
     inkscape:pageopacity="0.0"
     inkscape:pagecheckerboard="0"
     inkscape:deskcolor="#d1d1d1"
     inkscape:document-units="mm"
     showgrid="false"
     inkscape:zoom="2.1341967"
     inkscape:cx="730.48563"
     inkscape:cy="232.64023"
     inkscape:window-width="1908"
     inkscape:window-height="1024"
     inkscape:window-x="0"
     inkscape:window-y="24"
     inkscape:window-maximized="1"
     inkscape:current-layer="layer1" /><defs
     id="defs2"><rect
       x="668.42389"
       y="297.88303"
       width="129.89801"
       height="50.203308"
       id="rect523" /></defs><g
     inkscape:label="Layer 1"
     inkscape:groupmode="layer"
     id="layer1"><path
       style="fill:#ff2a2a;stroke-width:0.110832"
       d="m 139.05891,86.480965 -0.0558,-0.0029 -0.42986,-0.911343 -0.42985,-0.911355 -0.85296,-0.843276 -0.85296,-0.843278 -0.85069,-0.420432 -0.85069,-0.420432 v -0.03762 -0.03762 l 0.3748,-0.49102 0.37481,-0.491023 0.23827,-0.701374 0.23826,-0.701378 0.43982,-2.142884 0.43984,-2.142886 -0.003,-0.239991 -0.003,-0.239994 -1.56997,-0.831234 -1.56996,-0.831238 -0.14729,-0.03628 -0.14726,-0.03628 -2.79616,1.018429 -2.79614,1.018423 -0.46056,0.198432 -0.46057,0.198437 -0.0746,0.81439 -0.0747,0.814395 0.1159,2.1058 0.11591,2.105797 0.17474,0.91717 0.17474,0.917173 -0.0554,0.08961 -0.0554,0.08961 -0.80837,-0.206321 -0.80836,-0.206321 -1.10831,-0.115475 -1.10832,-0.115471 -0.77582,0.07265 -0.77582,0.07265 -1.93955,0.211167 -1.93955,0.211167 -1.08061,8.38e-4 -1.08061,8.38e-4 v -0.103366 -0.103361 l 0.21626,-0.06864 0.21625,-0.06864 0.80894,-0.530797 0.80893,-0.530802 0.86804,-0.912557 0.86803,-0.912558 0.45287,-0.943806 0.45287,-0.943802 0.0471,-1.125986 0.0471,-1.125986 -0.17422,-0.820812 -0.17422,-0.820808 -0.32539,-0.695321 -0.32537,-0.69532 -0.46939,-0.509212 -0.46937,-0.509212 0.12841,-0.246701 0.12841,-0.246701 0.5546,-0.66128 0.55459,-0.661278 0.49321,-1.001194 0.4932,-1.001194 0.24399,-0.886652 0.24399,-0.886651 0.009,-1.375759 0.009,-1.375758 -0.89368,-0.193298 -0.89366,-0.193299 -0.49513,-0.232735 -0.49512,-0.232735 -0.40227,-0.331579 -0.40226,-0.33158 -0.23106,-0.477304 -0.23106,-0.477306 -0.0701,-0.67125 -0.0701,-0.67125 0.0973,-0.05496 0.0973,-0.05496 1.44081,0.202796 1.44081,0.202796 2.43829,0.07312 2.43829,0.07312 1.20971,-0.132072 1.2097,-0.13207 1.284,-0.330137 1.28401,-0.330135 1.21914,-0.504484 1.21916,-0.504484 0.28331,-0.117003 0.28332,-0.117001 0.71617,0.286516 0.71618,0.286516 1.16173,0.335289 1.16171,0.335288 1.7733,0.385729 1.77331,0.385727 1.88413,0.275458 1.88414,0.275456 1.4408,0.127537 1.44081,0.127539 2.0972,-0.03475 2.09719,-0.03474 0.0365,0.109648 0.0366,0.109649 -0.69293,0.461867 -0.69294,0.461867 -0.83124,0.411928 -0.83123,0.411926 -1.5979,0.527023 -1.5979,0.527021 -0.14264,0.272224 -0.14262,0.272222 -0.11506,0.709119 -0.11506,0.70912 -9.1e-4,0.954648 -9e-4,0.954647 0.12051,0.596993 0.12053,0.596993 0.018,0.153662 0.018,0.153664 -1.38539,0.420123 -1.3854,0.420123 -0.88152,0.325161 -0.8815,0.325164 -0.0375,0.112569 -0.0375,0.112572 0.91904,0.590405 0.91903,0.590409 1.27456,0.675646 1.27457,0.67564 -0.0238,0.105309 -0.0239,0.105306 -0.2865,0.695442 -0.28648,0.695438 -0.23761,1.022449 -0.23762,1.022449 v 1.607053 1.607056 l 0.18938,0.491133 0.18937,0.491132 0.2749,0.360418 0.27491,0.360418 v 0.05236 0.05237 l -0.70633,0.33053 -0.70633,0.330534 -0.59594,0.382585 -0.59593,0.38259 -0.72041,0.625399 -0.7204,0.625388 -0.71995,0.833151 -0.71993,0.833145 -0.0558,-0.0029 z M 127.23369,71.410888 h 0.14503 l 0.93557,-0.344194 0.93557,-0.344195 3.21412,-1.1413 3.21411,-1.1413 0.79932,-0.29909 0.79933,-0.299088 0.10458,-0.127259 0.10458,-0.127258 0.17391,-1.926948 0.17391,-1.926948 -0.0502,-0.08116 -0.0502,-0.08116 -0.80599,-0.07513 -0.80598,-0.07512 -2.82621,-0.276657 -2.8262,-0.276656 -1.04548,-0.164981 -1.04549,-0.164979 -0.14027,0.141997 -0.14028,0.141997 -0.11232,0.720404 -0.11233,0.720404 -0.39209,3.391421 -0.3921,3.39142 v 0.182895 0.182892 z m -75.990539,14.289546 -0.01862,-0.0078 -0.696771,-0.392388 -0.696771,-0.392387 -1.39,-0.601439 -1.38999,-0.601438 -2.945261,-0.993881 -2.945262,-0.993885 -0.13287,-0.110273 -0.13287,-0.110273 -0.06381,-1.246958 -0.06372,-1.246953 -0.391515,-1.504717 -0.391525,-1.504719 -0.546421,-1.553329 -0.546421,-1.55333 -0.556372,-1.322747 -0.55639,-1.322747 -0.709949,-1.493273 -0.709958,-1.493273 -0.644675,-1.163732 -0.644675,-1.16373 -0.595598,-0.895169 -0.595607,-0.895169 -0.400337,-0.467712 -0.400346,-0.467711 -0.735029,-0.369903 -0.73503,-0.369902 -0.99748,-0.339295 -0.99748,-0.339295 -1.662473,-0.232632 -1.662474,-0.232632 -1.21915,-0.168482 -1.219139,-0.168455 -1.030686,-0.268719 -1.030678,-0.268717 -1.241357,-0.486515 -1.241375,-0.48656 L 17.476353,57.578559 15.647632,56.686824 14.317655,55.940653 12.98767,55.194482 12.045612,54.589144 11.103544,53.983807 9.6627334,52.956406 8.2219214,51.929004 7.5424401,51.390321 6.8629499,50.851638 5.5830176,49.716022 4.3030763,48.580407 4.066032,48.247505 3.8289878,47.914604 l 0.2014971,4.61e-4 0.2015061,4.61e-4 0.3615542,0.220444 0.3615632,0.220443 1.8692123,0.992609 1.8692127,0.992611 2.2088756,0.995838 2.208876,0.995838 0.824842,0.325765 0.824851,0.325766 1.662473,0.55967 1.662473,0.559671 1.551638,0.44572 1.551638,0.44572 1.163737,0.273348 1.163729,0.273347 1.884134,0.394553 1.884135,0.394554 2.21663,0.381318 2.216631,0.381318 1.939548,0.177799 1.939556,0.1778 1.146972,0.101589 1.146981,0.101589 0.06291,0.06293 0.06291,0.06293 -0.06336,0.06335 -0.06336,0.06335 -1.589888,0.3124 -1.589887,0.3124 -1.251453,0.192326 -1.251453,0.192327 0.04049,0.124624 0.04049,0.124625 0.868397,0.29336 0.868388,0.29336 1.239685,0.292924 1.239685,0.292925 0.867421,0.494322 0.86743,0.494323 h 0.03543 0.03543 l 0.711278,-0.486962 0.711286,-0.486962 0.647477,-0.243409 0.647486,-0.243409 1.052893,-0.139148 1.052903,-0.139146 0.09588,0.08429 0.09588,0.08429 -0.309567,0.632724 -0.309558,0.632724 -0.04591,0.568125 -0.04591,0.568124 2.073149,6.428225 2.07315,6.428223 0.605567,1.884136 0.605567,1.884132 0.15383,0.498961 0.153838,0.498958 0.973647,0.579129 0.973646,0.579128 0.241754,-0.246852 0.241753,-0.246852 1.281911,-1.773302 1.281921,-1.773302 2.17e-4,-0.223947 2.26e-4,-0.223948 -0.666891,-3.488906 -0.666882,-3.488906 -0.224409,-0.886652 -0.224409,-0.886651 -0.367438,-0.781707 -0.367447,-0.781705 -0.902416,-0.825351 -0.902417,-0.82535 -5.4e-5,-0.06378 -6.4e-5,-0.06378 0.826352,-0.523477 0.82636,-0.523477 0.643039,-0.701768 0.643049,-0.701768 0.525561,-1.065501 0.525569,-1.065501 v -0.145684 -0.145707 l 0.144991,-0.198287 0.14499,-0.198287 0.657528,0.814384 0.657518,0.814385 0.917257,0.917828 0.917267,0.917828 0.849977,0.554873 0.849977,0.554875 0.699781,0.333971 0.699772,0.333971 v 0.138092 0.138093 l -0.436481,0.426209 -0.436472,0.426208 -0.216789,0.510644 -0.216781,0.510645 -0.077,0.578147 -0.077,0.578148 0.129011,1.028909 0.129019,1.028908 0.546295,3.324942 0.546294,3.324944 0.0564,0.246563 0.0564,0.246563 2.321392,1.997777 2.321383,1.997773 h 0.184551 0.184541 l 0.692316,-0.494023 0.692306,-0.494023 -0.04076,-0.752834 -0.04076,-0.75283 -0.166556,-7.813616 -0.166555,-7.813618 -0.05052,-0.530431 -0.05052,-0.530431 -0.305807,-0.561875 -0.305816,-0.561874 -0.38546,-0.317732 -0.38546,-0.317732 0.06327,-0.06329 0.06327,-0.06329 0.872608,0.120111 0.872618,0.120112 2.549118,0.06405 2.549128,0.06404 2.826201,-0.233252 2.826202,-0.233252 0.56447,-0.05586 0.56447,-0.05586 0.07005,0.07008 0.07005,0.07008 -1.022453,0.497756 -1.022462,0.497756 -0.833338,0.844189 -0.833337,0.84419 -0.458561,0.886652 -0.458552,0.886651 -0.238319,0.720405 -0.238309,0.720404 -0.06526,1.182684 -0.06526,1.182685 0.137272,0.70145 0.137272,0.701451 0.360894,0.775821 0.360904,0.77582 0.460034,0.60659 0.460043,0.606588 v 0.07706 0.07706 l -0.507069,0.590917 -0.507078,0.590912 -0.459573,0.942068 -0.459564,0.942068 -0.04356,1.140098 -0.04356,1.140095 0.247791,1.076532 0.247799,1.076532 0.272068,0.757116 0.272067,0.75711 -0.05034,0.131281 -0.05034,0.13128 -0.650721,0.264492 -0.650731,0.264487 -1.828712,0.821277 -1.828721,0.821273 -1.160674,0.617909 -1.160673,0.617906 -0.585629,0.388843 -0.585638,0.388839 -0.969064,-0.644316 -0.969064,-0.644308 -1.551647,-1.164964 -1.551629,-1.16496 -0.831241,-0.666924 -0.831232,-0.666919 -0.735247,-0.643249 -0.735237,-0.643248 h -0.104355 -0.104346 l -0.601219,0.747309 -0.60122,0.747313 -1.904723,2.285961 -1.904723,2.285961 -0.182427,0.07002 -0.182436,0.07 -0.01862,-0.0078 z m 65.981499,-1.000696 -0.27707,-0.0013 -2.60454,-0.653269 -2.60455,-0.653268 -2.14001,-0.693445 -2.14001,-0.693443 -0.98516,0.526412 -0.98517,0.526406 -1.08297,0.274718 -1.08297,0.27472 -0.14747,-0.05659 -0.14746,-0.0566 0.31027,-0.527823 0.31026,-0.527827 -0.0135,-0.831233 -0.0134,-0.831239 -0.28086,-0.720403 -0.28087,-0.720404 -0.67617,-1.413103 -0.67616,-1.413101 h -0.15917 -0.15917 l -1.25325,1.14613 -1.253253,1.146131 -1.206217,1.343566 -1.206217,1.343571 -0.179173,-0.09857 -0.179182,-0.09857 -2.438292,-2.277872 -2.438292,-2.277877 -0.08152,-0.0025 -0.08152,-0.0025 -0.333256,0.660184 -0.333265,0.660188 -0.277906,0.827871 -0.277905,0.827869 v 0.762469 0.762465 l 0.23285,0.689519 0.23286,0.689519 0.479583,0.651471 0.479584,0.651475 -0.0564,0.05638 -0.0564,0.05639 -0.794592,-0.2144 -0.7946,-0.214413 -1.565455,-0.773544 -1.565458,-0.773541 h -0.117198 -0.117198 l -0.977298,0.491472 -0.977298,0.491472 -0.853737,0.285339 -0.853728,0.285341 -1.290787,0.220671 -1.290787,0.220672 h -0.376836 -0.376901 v -0.09508 -0.09508 l 0.637282,-0.394356 0.637281,-0.394356 0.951503,-0.979082 0.951513,-0.979081 0.576084,-0.859366 0.576093,-0.859367 0.597803,-1.191015 0.597803,-1.191019 0.728513,-1.855324 0.728505,-1.85533 V 73.129759 72.962613 L 85.665389,72.629721 85.138942,72.296829 83.808966,71.645852 82.478989,70.99487 81.394137,70.647627 80.309284,70.300384 79.177506,70.1786 l -1.131779,-0.121784 -0.03859,-0.03599 -0.03868,-0.03599 0.592796,-0.177343 0.592796,-0.177345 0.997489,-0.175479 0.99748,-0.175478 1.052903,0.06996 1.052893,0.06996 0.942067,0.209982 0.942067,0.209981 1.044633,0.336945 1.044623,0.336946 0.0818,-0.05052 0.0817,-0.05052 1.35849,-3.406854 1.358492,-3.406855 0.05052,-0.5258 0.05052,-0.525801 -0.14067,-0.33962 -0.140679,-0.339618 -0.455163,-0.236227 -0.455172,-0.236227 -1.349967,-0.04814 -1.349969,-0.04813 -1.476232,0.128814 -1.476233,0.128815 -0.41562,0.06472 -0.415621,0.06472 v -0.131101 -0.131096 l 0.620263,-0.274305 0.620254,-0.274309 1.168726,-0.328172 1.168718,-0.328171 1.674503,-0.326725 1.674501,-0.326726 1.662473,-0.188015 1.662473,-0.188013 1.60706,0.06432 1.607051,0.06433 0.862884,0.224224 0.862881,0.224225 0.24239,0.169775 0.24239,0.169775 0.77886,-0.0012 0.77887,-0.0012 1.440813,-0.222026 1.44081,-0.222025 1.15262,-0.277406 1.15264,-0.277407 0.0626,0.0626 0.0626,0.0626 -0.13725,0.188638 -0.13724,0.18864 -0.38452,0.775995 -0.38451,0.775996 -0.10993,0.866989 -0.10992,0.86699 0.10992,1.060048 0.10993,1.06005 0.46224,1.390063 0.46225,1.390062 0.54379,1.05843 0.5438,1.058428 0.36777,0.50088 0.36775,0.500877 0.44035,0.407316 0.44034,0.407316 0.0757,0.756416 0.0757,0.756412 0.21872,0.831238 0.21869,0.831233 0.65035,1.329978 0.65035,1.329978 0.70379,0.993805 0.70379,0.993802 1.27457,1.284204 1.27456,1.284206 0.83123,0.613616 0.83124,0.613616 0.73775,0.433321 0.73775,0.433317 0.42598,0.244465 0.42598,0.244469 -0.27707,-0.0013 z m -20.91672,-8.196876 0.08586,0.0063 1.244132,-1.018829 1.244135,-1.018831 0.58187,-0.498534 0.581863,-0.49853 -0.005,-0.172817 -0.005,-0.172817 -1.810643,-3.823686 -1.810635,-3.823685 H 96.274556 96.1346 l -1.819719,4.045348 -1.81972,4.045347 0.31095,0.244824 0.310949,0.244821 1.551638,1.217417 1.551647,1.217422 0.08586,0.0063 z m 66.84766,7.755479 -0.21296,-0.0089 -0.33249,-0.153733 -0.3325,-0.153729 -1.16372,-0.381011 -1.16374,-0.381014 -1.11087,-0.22819 -1.11084,-0.228187 -1.10578,-0.164808 -1.10576,-0.164809 -1.21915,-0.122965 -1.21915,-0.122961 -1.85996,-0.08909 -1.85997,-0.08909 -0.0796,-0.08197 -0.0796,-0.08197 0.38791,-0.291946 0.38791,-0.291946 0.79162,-0.75652 0.7916,-0.756521 0.28933,-0.644694 0.28932,-0.644693 0.072,-0.689557 0.0721,-0.689557 0.45406,0.07067 0.45404,0.07067 0.94206,0.283334 0.94207,0.283333 3.54661,1.305845 3.54661,1.305845 0.9224,0.302929 0.92238,0.302926 0.26982,-0.253484 0.26981,-0.253483 0.59745,-1.171394 0.59744,-1.171394 0.33825,-0.962711 0.33824,-0.962711 0.17186,-0.90596 0.17186,-0.905959 v -0.490064 -0.49006 l -0.1606,-0.384348 -0.16058,-0.384354 -0.14421,-0.0094 -0.14419,-0.0095 -0.60957,0.0142 -0.60957,0.0142 -2.1058,0.164319 -2.1058,0.164317 -2.82621,0.332546 -2.8262,0.332539 -0.97398,0.145997 -0.97399,0.146 -0.054,-0.08734 -0.054,-0.08734 0.45677,-1.086698 0.45678,-1.086694 0.42638,-1.188316 0.4264,-1.188314 0.27269,-1.249978 0.27268,-1.249979 0.0685,-1.005025 0.0685,-1.005024 -0.11637,-0.823695 -0.11636,-0.823694 -0.32691,-0.699758 -0.32691,-0.699759 -0.23779,-0.333972 -0.23782,-0.333971 0.0967,-0.0939 0.0968,-0.0939 0.99748,0.114311 0.99749,0.114312 1.93955,-0.06009 1.93955,-0.06009 0.96402,-0.176192 0.96401,-0.176191 0.84115,-0.274579 0.84115,-0.27458 0.57771,-0.28964 0.57772,-0.289642 0.66498,-0.444247 0.66499,-0.444246 0.30655,-0.285783 0.30655,-0.285784 0.41386,0.12319 0.41385,0.123187 0.9779,0.402004 0.97789,0.402004 1.24621,0.321322 1.24621,0.321322 1.24319,0.173395 1.2432,0.173395 0.46721,-0.0089 0.46723,-0.0089 0.54614,-0.185069 0.54615,-0.185071 0.0362,-0.112343 0.0362,-0.112345 -0.63779,-0.37198 -0.63777,-0.371982 -1.01978,-0.679405 -1.01977,-0.679405 -0.0629,-0.15293 -0.0629,-0.152932 1.24891,0.09752 1.24889,0.09751 2.49371,-0.01018 2.49371,-0.01018 1.93955,-0.245279 1.93955,-0.24528 1.27456,-0.279042 1.27456,-0.279043 1.54382,-0.448917 1.54382,-0.448918 1.00531,-0.419735 1.00531,-0.419734 1.32997,-0.604844 1.32998,-0.604845 1.32998,-0.720037 1.32997,-0.720037 0.64386,-0.359432 0.64387,-0.359432 0.061,0.06104 0.061,0.06103 -0.59407,0.628171 -0.59407,0.628172 -1.4408,1.245338 -1.44082,1.245338 -1.49622,1.105207 -1.49622,1.105208 -1.21916,0.778787 -1.21914,0.778789 -1.11387,0.613672 -1.11387,0.613671 -1.21359,0.574514 -1.21359,0.574515 -1.3854,0.532792 -1.38539,0.532792 -1.05289,0.341576 -1.05291,0.341576 -0.9395,0.235304 -0.93949,0.235303 -1.49881,0.255385 -1.49878,0.255388 -0.86185,0.139918 -0.86184,0.139919 -1.29937,-0.06658 -1.29936,-0.06658 -1.60706,-0.332585 -1.60706,-0.332585 -1.0529,-0.322979 -1.0529,-0.322978 -0.52295,-0.20329 -0.52294,-0.203291 -0.29431,0.27198 -0.29431,0.271978 -0.54791,0.719118 -0.54792,0.719117 -0.38851,0.818701 -0.38851,0.818701 -0.22238,0.845057 -0.22238,0.84506 -0.0189,1.351386 -0.0189,1.351388 0.11606,0.116819 0.11606,0.11682 1.54641,-0.215514 1.54641,-0.215512 1.55164,-0.118573 1.55164,-0.118573 2.88162,-0.106758 2.88162,-0.106757 0.91436,-0.0022 0.91436,-0.0022 v 0.204175 0.204179 l -0.45956,1.09809 -0.45956,1.098093 -0.48445,1.274561 -0.48443,1.274563 -0.43225,1.440807 -0.43227,1.440809 -0.24205,1.108317 -0.24206,1.108313 -0.0719,1.385393 -0.0719,1.385392 -1.38608,0.07241 -1.38609,0.07241 -1.41471,0.238911 -1.41472,0.238909 -0.86129,0.257794 -0.86128,0.257794 -0.72447,0.289826 -0.72444,0.289826 -0.21298,-0.0089 z m -25.86855,-27.276498 -2.1631,-0.02096 -0.665,-0.03494 -0.66498,-0.03494 -1.16374,-0.110418 -1.16373,-0.110414 -1.16373,-0.178885 -1.16372,-0.178884 -1.77331,-0.436743 -1.7733,-0.436742 -0.85702,-0.268538 -0.857,-0.268536 -1.69212,-0.626138 -1.69211,-0.626136 -1.91571,-0.938648 -1.9157,-0.938646 -1.4243,-0.864015 -1.42429,-0.864013 -0.8716,-0.584197 -0.87159,-0.584197 -1.3854,-1.056248 -1.38539,-1.056248 -1.49622,-1.351295 -1.49623,-1.351294 -1.33285,-1.370309 -1.33286,-1.370308 -0.90116,-1.012731 -0.90116,-1.012732 -1.29323,-1.627122 -1.293223,-1.627122 -1.11842,-1.571742 -1.118414,-1.571742 -1.015042,-1.607056 -1.01505,-1.607057 -1.000183,-1.717888 -1.000183,-1.717887 -0.543158,-0.968981 -0.543158,-0.968979 -0.110835,0.03581 -0.110826,0.03581 -0.138321,2.152319 -0.138311,2.152318 -0.01112,3.214113 -0.01112,3.214112 0.132138,1.219146 0.132139,1.219146 0.314528,1.405718 0.314529,1.40572 0.403328,0.921741 0.403338,0.921743 0.488694,0.837302 0.488703,0.837304 0.893026,1.07829 0.893026,1.078291 -0.06065,0.09809 -0.06065,0.09809 -1.190454,-0.31283 -1.190455,-0.312828 -1.21915,-0.462262 -1.219142,-0.46226 -0.91432,-0.496263 -0.91432,-0.496264 -1.384439,-0.936286 -1.38444,-0.936286 h -0.152411 -0.15242 l -0.393694,0.50533 -0.393703,0.505329 -0.731523,0.779762 -0.731522,0.779761 -0.81481,0.682168 -0.814819,0.682166 -0.707029,0.508773 -0.707048,0.508773 -0.81772,0.474182 -0.817729,0.474182 -1.279128,0.601026 -1.279127,0.601028 -1.83766,0.647347 -1.83767,0.647348 -0.360198,0.07723 -0.360207,0.07723 v -0.162479 -0.162478 l 0.753802,-0.616709 0.753801,-0.616709 1.047218,-1.086245 1.047208,-1.086245 0.731478,-0.831037 0.731486,-0.831037 0.607077,-0.831235 0.607076,-0.831236 0.816915,-1.274562 0.816916,-1.274562 0.402569,-0.77582 0.402561,-0.77582 0.621573,-1.440809 0.621583,-1.440809 0.272076,-0.942068 0.272076,-0.942068 0.226958,-1.219146 0.226957,-1.219146 0.0573,-0.899195 0.0573,-0.899196 -0.09986,-1.206602 -0.09986,-1.206602 -0.243398,-1.052899 -0.243398,-1.052899 -0.432504,-0.985158 -0.432504,-0.985159 -0.494162,-0.763892 -0.494153,-0.763893 v -0.155822 -0.155818 l 0.618057,-0.976749 0.618058,-0.976747 0.76115,-1.551641 0.76115,-1.55164 0.335795,-1.052899 0.335795,-1.052899 0.114803,-0.529186 0.114794,-0.529187 0.06978,-1.299533 0.06977,-1.299532 -0.30211,-1.2191466 -0.302119,-1.219146 -0.482115,-0.91361 -0.482092,-0.91361 L 82.35362,6.1042056 81.826297,5.4107597 81.099709,4.6895105 80.37313,3.9682604 79.597302,3.3432515 78.821483,2.7182436 78.045664,2.2120641 77.269845,1.7058847 77.048184,1.5394268 l -0.22167,-0.166457 0.166257,-0.1129139 0.166239,-0.1129131 0.60958,-0.018112 0.609571,-0.018103 0.720405,0.021113 0.720397,0.021113 1.219151,0.1607928 1.219141,0.1607937 1.662473,0.2328116 1.662474,0.2328099 0.498744,0.05046 0.498745,0.05046 0.886645,0.1045843 0.886652,0.1045853 1.108316,0.1253739 1.108315,0.1253731 3.103285,0.069386 3.103276,0.069386 -0.831232,0.4275265 -0.831241,0.4275283 -0.591115,0.4419921 -0.591115,0.4419931 -0.417157,0.6454098 -0.417148,0.6454107 -0.134813,0.4815288 -0.134823,0.4815278 0.766284,1.6609799 0.766284,1.660979 1.070843,2.1612126 1.070843,2.161214 0.753639,1.440809 0.753638,1.440809 1.14416,2.050382 1.144163,2.050383 1.16824,1.93955 1.16825,1.939551 1.21763,1.884134 1.21764,1.884135 1.16376,1.662472 1.16376,1.662472 1.21771,1.584911 1.2177,1.584911 0.10705,-0.107037 0.10703,-0.107037 -0.12661,-3.417424 -0.12659,-3.417425 -0.11427,-4.488675 -0.11427,-4.488674 -0.0559,-6.206561 -0.0559,-6.2065624 -0.21011,-0.7204039 -0.21012,-0.7204041 -0.32271,-0.4987419 -0.32272,-0.4987411 -0.36552,-0.3658192 -0.36552,-0.3658193 -0.61863,-0.3597945 -0.61864,-0.3597944 -0.36021,-0.1467763 -0.36019,-0.1467764 v -0.097385 -0.097385 l 2.57682,-0.00136 2.57683,-0.00136 1.88414,-0.165752 1.88413,-0.1657502 0.88666,-0.1045292 0.88665,-0.1045283 0.49874,-0.053633 0.49874,-0.053632 2.99245,-0.394482 2.99245,-0.3944839 1.28109,-6.706e-4 1.28108,-6.698e-4 0.20325,0.1486157 0.20325,0.1486165 -0.69645,0.4230689 -0.69645,0.423068 -1.12037,0.8336741 -1.12038,0.8336733 -1.12375,1.1317577 -1.12373,1.1317577 -0.44044,0.6492888 -0.44045,0.6492882 -0.34665,0.687534 -0.34666,0.687534 -0.28497,0.974937 -0.28499,0.9749386 -0.0641,1.171568 -0.0641,1.171569 0.19151,1.145377 0.19153,1.145376 0.3863,1.11883 0.38632,1.118831 0.52937,1.108314 0.52936,1.108315 0.57083,0.98568 0.57083,0.985678 v 0.136419 0.136415 l -0.62176,1.53786 -0.62176,1.537858 -0.37812,1.108315 -0.37812,1.108314 -0.26439,1.0529 -0.26438,1.052898 -0.22086,1.108315 -0.22084,1.108314 -0.12056,0.886652 -0.12057,0.886652 -0.1122,1.004988 -0.11221,1.00499 0.003,1.59955 0.002,1.599551 0.16359,1.828718 0.1636,1.82872 0.10578,0.77582 0.10579,0.775821 0.17114,0.831235 0.17114,0.831236 0.5824,0.545024 0.58239,0.545023 0.99749,0.796165 0.99748,0.796163 0.83211,0.55593 0.83213,0.555929 0.94118,0.47334 0.94119,0.473339 0.69587,0.262032 0.69586,0.262032 0.46787,0.104449 0.46786,0.104449 1.15784,0.172732 1.15786,0.172733 0.0891,-0.08912 0.0891,-0.08906 -0.45471,-0.936421 -0.45471,-0.936421 -0.33288,-0.886652 -0.33286,-0.886652 -0.091,-0.303292 -0.091,-0.303291 0.1119,-0.06915 0.1119,-0.06915 1.1268,0.693405 1.12679,0.693406 1.13086,0.653014 1.13089,0.653013 0.58701,0.207027 0.58701,0.207027 0.8303,0.347685 0.83029,0.347684 2.05132,0.665953 2.05133,0.665953 2.16121,0.422682 2.16121,0.422682 1.03214,0.135892 1.03215,0.135891 1.79406,0.08631 1.79406,0.0863 2.65996,-0.09535 2.65995,-0.09535 1.69777,-0.178206 1.69778,-0.178208 0.0663,0.0663 0.0662,0.06629 -0.0623,0.06228 -0.0623,0.06228 -0.87055,0.328118 -0.87055,0.328118 -1.55164,0.454076 -1.55164,0.454078 -1.16373,0.320456 -1.16373,0.320456 -1.88413,0.391608 -1.88414,0.391608 -1.21915,0.213124 -1.21914,0.213123 -1.3854,0.166285 -1.38539,0.166286 -1.77141,0.11443 -1.77142,0.114432 -2.1631,-0.02096 z m 48.15333,-7.001554 -0.10978,0.03306 -0.49875,-0.908213 -0.49873,-0.908213 -0.88666,-0.896978 -0.88665,-0.896978 -0.99748,-0.665578 -0.99749,-0.66558 -1.05289,-0.611392 -1.05291,-0.611395 -1.16372,-0.554343 -1.16373,-0.554344 -0.47104,-0.200477 -0.47103,-0.200478 v -0.19632 -0.19632 l 0.43554,-0.812038 0.43555,-0.812039 0.44134,-1.329977 0.44133,-1.329977 0.23599,-1.403624 0.23596,-1.403623 0.0861,-1.699659 0.086,-1.699657 -0.0629,-0.879934 -0.0629,-0.879935 -0.67124,-0.560874 -0.67124,-0.560874 -1.7525,-1.440809 -1.75251,-1.440809 -0.79036,-0.532612 -0.79038,-0.532613 -0.79387,-0.441881 -0.79388,-0.441884 -0.11258,-0.135659 -0.11259,-0.135661 -0.18037,-1.051058 -0.18037,-1.05106 -0.44343,-1.329977 -0.44341,-1.329978 -0.90114,-1.828718 -0.90114,-1.82872 -1.19066,-1.773303 -1.19066,-1.773303 -0.95392,-1.188372 -0.95393,-1.1883696 -0.99798,-1.074631 -0.99798,-1.0746306 -1.02051,-0.9424068 -1.02052,-0.942408 -0.83123,-0.6642951 -0.83124,-0.6642951 -1.12031,-0.7298011 -1.1203,-0.729802 -0.34815,-0.1887982 -0.34821,-0.1888003 V 1.7963568 1.6628377 l 2.13351,0.071076 2.1335,0.071076 1.10832,0.1268029 1.10831,0.1268038 0.88778,0.1991653 0.88775,0.1991634 0.64212,0.2402465 0.64211,0.2402455 0.81331,0.543969 0.8133,0.543969 h 0.15574 0.15574 l 0.43812,-0.4488874 0.4381,-0.4488882 0.44333,-0.2589085 0.44332,-0.2589103 0.83124,-0.2774775 0.83123,-0.2774792 0.55416,-0.1238375 0.55416,-0.1238375 1.10832,-0.1647966 1.10831,-0.1647949 0.29824,-6.706e-4 0.29825,-6.698e-4 0.071,0.1148102 0.0709,0.1148119 -0.33508,0.522469 -0.3351,0.5224707 -0.27785,0.6095735 -0.27782,0.6095726 -0.11633,0.733814 -0.11632,0.733815 0.11148,0.587786 0.11148,0.587786 0.29451,0.5071184 0.29452,0.507119 1.27297,2.050382 1.27298,2.0503816 0.98083,1.579349 0.98084,1.579348 0.97978,1.579348 0.97978,1.579349 0.77501,1.247573 0.77501,1.247572 1.28234,0.996765 1.28235,0.996764 0.14927,-0.0023 0.14926,-0.0023 1.08005,-1.02296 1.08004,-1.022959 0.37945,-1.052898 0.37947,-1.052899 1.67973,-4.433259 1.67975,-4.4332576 0.45351,-1.219147 0.4535,-1.2191455 0.0797,-0.4277586 0.0797,-0.4277597 -0.15312,-0.656337 -0.1531,-0.6563361 -0.23432,-0.4592866 -0.2343,-0.4592858 -1.11395,-1.1449453 -1.11395,-1.1449472 0.0788,-0.078786 0.0788,-0.078786 0.55317,0.1964682 0.55318,0.1964683 1.29769,0.2746512 1.29769,0.274653 1.88413,0.1601836 1.88414,0.1601836 1.00589,0.00226 1.00591,0.00226 1.15957,-0.1627749 1.15957,-0.1627739 0.99322,-0.218131 0.99323,-0.2181291 0.94207,-0.1746438 0.94207,-0.1746447 0.83123,-0.1060187 0.83124,-0.1060178 0.68615,-0.00343 0.68616,-0.00343 0.0595,0.096224 0.0595,0.096225 -0.74562,0.5019423 -0.74563,0.5019433 -0.72137,0.6486862 -0.72136,0.648687 -0.94818,1.0142597 -0.94819,1.0142596 -0.77941,1.0361228 -0.77942,1.0361219 -0.66432,0.997483 -0.66434,0.9974826 -0.50111,0.831237 -0.50112,0.831235 -0.39303,0.720404 -0.39301,0.720405 -0.40387,0.77582 -0.40388,0.775821 -0.5402,1.219146 -0.54021,1.219146 -0.45487,1.347236 -0.45486,1.347238 -0.1553,0.813975 -0.1553,0.813977 -0.0778,0.964085 -0.0778,0.964084 -0.6328,0.44388 -0.63278,0.44388 -0.5993,0.590171 -0.59927,0.590173 -0.82798,1.16056 -0.82798,1.160562 -0.70888,0.886044 -0.70889,0.886044 0.057,0.610181 0.057,0.610179 0.33497,1.329978 0.33498,1.329978 0.46528,1.385393 0.46529,1.385393 0.64955,1.434477 0.64957,1.434478 0.52873,0.87624 0.52874,0.87624 0.57667,0.700184 0.57667,0.700183 -0.13334,0.107697 -0.13334,0.107696 -1.3854,0.925117 -1.38539,0.925116 -1.33195,1.331612 -1.33196,1.331612 -0.36259,0.622151 -0.36258,0.622152 -0.35689,0.865187 -0.35689,0.865187 -0.10979,0.03306 z m -36.79699,-0.624861 h -0.1299 l -0.1939,-0.214251 -0.19388,-0.214249 0.2482,-1.642177 0.24821,-1.642177 0.086,-1.329977 0.086,-1.329978 0.12797,-2.050382 0.12795,-2.050382 0.0193,-3.269529 0.0193,-3.269527 -0.14211,-2.327461 -0.14212,-2.32746 -0.10258,-1.82872 -0.10259,-1.828719 -0.11201,-1.93955 -0.11201,-1.939551 -0.11782,-2.161214 -0.11783,-2.161213 -0.0535,-0.247339 -0.0535,-0.247337 -0.34237,-0.389943 -0.34238,-0.389943 h -0.22141 -0.22141 l -3.72581,1.890641 -3.72581,1.890641 -0.1577,0.130869 -0.15769,0.130869 0.0691,1.719052 0.0691,1.719052 0.11033,2.770787 0.11032,2.770786 0.16628,4.322427 0.16628,4.322427 0.16534,0.942067 0.16535,0.942067 0.16847,0.554158 0.16846,0.554158 0.33154,0.574407 0.33155,0.574407 0.32661,0.192936 0.32662,0.192936 0.0618,0.230141 0.0618,0.230139 0.002,0.295722 0.002,0.295722 -0.0673,0.175311 -0.0672,0.175312 h -6.4191 -6.41913 l -0.10808,-0.284294 -0.10809,-0.284293 v -0.334737 -0.334737 l 0.39825,-0.350744 0.39826,-0.350745 0.26016,-0.443326 0.26016,-0.443326 0.24302,-0.886652 0.24302,-0.886651 -0.0746,-4.322428 -0.0747,-4.322426 -0.10162,-3.657439 -0.10163,-3.657438 -0.12235,-5.929483 -0.12234,-5.9294826 -0.0524,-0.25609 -0.0524,-0.256088 -1.18765,-0.575148 -1.18771,-0.575146 -0.0344,-0.415813 -0.0344,-0.4158133 0.25804,-0.098107 0.25804,-0.098106 0.82926,-0.1246744 0.82927,-0.1246753 1.0529,-0.2239694 1.0529,-0.2239697 0.77582,-0.1716693 0.77582,-0.1716675 1.99087,-0.492501 1.99085,-0.4925002 0.12188,0.046773 0.12189,0.046772 0.56471,0.9448853 0.56471,0.944886 0.067,0.2109275 0.067,0.2109258 0.0964,2.6847081 0.0964,2.684709 0.068,0.06803 0.0681,0.06803 0.24984,-0.115347 0.24984,-0.115345 1.42976,-1.14176 1.42976,-1.14176 0.8977,-0.8205366 0.8977,-0.820536 0.92522,-0.960518 0.92524,-0.9605186 1.05178,-1.1914384 1.05177,-1.1914386 h 0.14985 0.14983 l 1.30894,1.2305007 1.30892,1.2305014 0.83124,0.6362185 0.83124,0.636219 1.10831,0.720186 1.10832,0.720187 1.07518,0.5885716 1.07519,0.588571 0.0615,0.16007 0.0615,0.160069 -0.18192,1.435349 -0.1819,1.435348 0.12762,4.289576 0.12761,4.289577 0.16047,2.438292 0.16046,2.438292 0.10839,1.496225 0.10837,1.496224 0.0617,0.720405 0.0617,0.720404 0.1122,1.440809 0.11221,1.440809 0.17641,1.440809 0.17642,1.440809 0.22953,1.052899 0.22953,1.052899 0.008,0.439877 0.008,0.439875 -0.98729,0.535609 -0.98731,0.535609 -0.56433,0.376256 -0.56434,0.376256 -1.16373,0.937888 -1.16374,0.937889 -1.33775,1.312393 -1.33775,1.312393 -0.98115,1.191438 -0.98117,1.191439 h -0.12991 z M 11.598909,48.690439 h -0.08803 L 11.013271,47.993109 10.515665,47.29578 9.8120974,46.685443 9.1085394,46.075107 8.3327204,45.572586 7.5569012,45.070063 6.3931636,44.457497 5.2294351,43.84493 4.0657067,43.366045 2.9019782,42.887159 2.7629349,42.764179 2.6238916,42.641199 3.2781652,41.787873 3.9324568,40.934546 4.432042,40.074447 4.9316362,39.21435 5.2634458,38.493945 5.5952463,37.773541 5.8142051,37.219383 6.0331549,36.665226 6.3770937,35.612326 6.7210325,34.559429 7.0608228,32.841541 7.400613,31.123653 7.4651456,29.904507 7.5296782,28.685361 7.3985523,27.480156 7.2674445,26.27495 7.0004478,25.429773 6.7334509,24.584596 6.3416189,23.933888 5.9497778,23.283179 v -0.104095 -0.104096 l 0.8084919,-0.985316 0.8085011,-0.985317 0.6156806,-1.086081 0.61569,-1.086082 0.502721,-1.274562 0.502721,-1.274562 0.3935676,-1.274562 0.393567,-1.274562 0.334783,-1.55164 0.334774,-1.55164 0.171906,-1.3752036 0.171907,-1.375203 -0.05513,-0.05517 -0.05513,-0.05517 L 9.1743194,7.2820822 6.8548065,6.6942458 5.7650465,6.5142839 4.6752865,6.3343212 3.2344837,6.3419132 1.7936719,6.3495053 1.1323304,6.460138 0.47098902,6.5707707 0.37170462,6.4714909 0.27242932,6.372211 0.33931182,6.2640005 0.40619432,6.1557901 0.71202812,6.0797519 1.0178619,6.0037137 2.1815904,5.5525135 3.3453188,5.1013133 4.5090473,4.4972757 5.6727757,3.8932381 7.2244228,2.8699123 8.7760604,1.8465865 9.6406434,1.1491809 10.505217,0.45177719 l 1.074974,0.2940824 1.074973,0.29408231 0.831232,0.2170527 0.831241,0.2170555 1.163729,0.2666831 1.163728,0.2666849 1.60706,0.2818022 1.607051,0.281804 1.219151,0.1229319 1.219141,0.1229318 2.299755,0.067108 2.299755,0.067108 V 2.8324762 2.7138447 l -0.232001,-0.5356367 -0.23201,-0.5356384 -0.06092,-0.85894401 -0.06092,-0.858944 h 0.18455 0.184542 l 0.856484,0.4303311 0.856485,0.4303292 1.225378,0.50474241 1.225369,0.5047433 1.379171,0.3824766 1.379163,0.3824767 0.822239,0.181689 0.822248,0.181689 2.225614,0.2881787 2.225624,0.2881786 2.216631,0.013593 2.216631,0.013593 1.302265,-0.09113 1.302275,-0.09113 V 3.4596545 3.574866 l -1.058398,0.6228993 -1.058397,0.6228985 -0.908861,0.4197166 -0.908861,0.4197166 -1.21915,0.4978083 -1.219142,0.4978083 -1.496225,0.4977828 -1.496225,0.497783 -1.052902,0.295001 -1.052893,0.295001 -1.262995,0.280089 -1.262986,0.28009 -1.064471,0.16546 -1.064471,0.165459 -1.052903,0.118575 -1.052902,0.118575 -3.324937,-0.06793 -3.324946,-0.06792 -0.38791,-0.05901 -0.387909,-0.05901 -0.14462,0.09744 -0.144629,0.09744 -0.198569,0.8209346 -0.198577,0.820936 -0.240633,1.329977 -0.240623,1.329978 -0.385948,2.404016 -0.385958,2.404015 v 0.275673 0.275672 l 0.60169,0.07517 0.60168,0.07518 1.753488,-0.04799 1.753487,-0.04799 1.108316,-0.363518 1.108315,-0.363518 1.237109,-0.486923 1.23711,-0.486922 h 0.138456 0.138456 l 1.062717,0.649903 1.062736,0.649903 1.607051,0.997465 1.60706,0.997466 0.99748,0.553517 0.997481,0.553518 0.02865,0.154282 0.02865,0.154284 -1.697505,0.863547 -1.697505,0.863548 -2.598178,1.435732 -2.598177,1.435732 -0.277084,-0.0015 -0.277074,-0.0015 -0.609571,-0.341875 -0.609579,-0.341875 -1.193555,-0.430903 -1.193554,-0.430902 -1.037854,-0.0954 -1.037845,-0.0954 -1.185745,0.09254 -1.185737,0.09254 -0.42756,0.115131 -0.427569,0.115132 -0.05965,0.191482 -0.05965,0.191483 -0.115101,0.77582 -0.11511,0.775821 -0.16275,0.997483 -0.162751,0.997483 -0.214042,1.662472 -0.214042,1.662472 -0.06806,1.282411 -0.06806,1.28241 0.114161,1.04505 0.11417,1.045036 0.121853,0.554157 0.121853,0.554157 0.204326,0.683909 0.204317,0.683909 0.277427,0.547484 0.277436,0.547483 0.566693,0.620057 0.566703,0.620057 0.387042,0.239207 0.387042,0.239206 -0.03344,0.153572 -0.03344,0.153571 -1.525165,0.711119 -1.525174,0.711118 -0.913118,0.61399 -0.913127,0.613991 -0.879252,0.753091 -0.879252,0.75309 -0.934836,0.858945 -0.934846,0.858943 z m 37.700429,-4.347186 -0.08749,0.03066 -0.591783,-0.640228 -0.591793,-0.640229 -1.283502,-1.318677 -1.283503,-1.318678 -1.108315,-0.886035 -1.108315,-0.886035 -1.025192,-0.722173 -1.025191,-0.722175 v -0.101091 -0.101091 l 0.377308,-1.183618 0.377298,-1.183618 0.237469,-1.052899 0.23746,-1.052899 0.100921,-0.38791 0.100929,-0.38791 0.28482,-1.440809 0.284829,-1.440809 0.379396,-2.272045 0.379395,-2.272045 0.173253,-1.385393 0.173253,-1.385394 0.106009,-0.775819 0.105999,-0.775821 0.125432,-1.329978 0.125432,-1.329977 0.0103,-1.884136 0.01021,-1.884134 L 44.57889,12.614804 44.373814,11.61732 44.073069,10.946596 43.772324,10.275872 43.148256,9.6018054 42.524188,8.9277404 v -0.268791 -0.26879 l 0.14471,-0.1979 0.14471,-0.197901 0.769655,-0.09301 0.769646,-0.09301 0.60958,-0.111286 L 45.57205,7.5857684 46.403291,7.421177 47.234523,7.2565855 48.287426,7.0239944 49.340328,6.791405 50.670124,6.4496781 51.99992,6.1079519 53.457895,5.6208186 54.915871,5.1336862 h 0.131297 0.131298 l -0.06932,0.4710345 -0.06932,0.4710336 -0.158069,0.7204039 -0.158086,0.7204052 -0.169439,0.997483 -0.16943,0.997483 -0.219663,1.8287186 -0.219655,1.828719 -0.117415,0.997483 -0.117406,0.997484 -0.106813,0.942067 -0.106813,0.942067 -0.168834,1.662472 -0.168824,1.662472 -0.103442,0.942068 -0.103442,0.942067 -0.115715,1.108314 -0.115698,1.108316 -0.166574,1.607055 -0.166573,1.607057 -0.113664,1.108314 -0.113673,1.108315 -0.05269,0.38791 -0.05269,0.38791 1.23401,1.191438 1.234009,1.191439 h 0.198768 0.198767 l 3.194715,-1.501605 3.194715,-1.501604 0.127095,-0.13316 0.127095,-0.13316 0.127484,-1.440808 0.127474,-1.440809 0.103324,-1.163731 0.103325,-1.16373 0.111269,-1.274562 0.11126,-1.274562 0.166519,-1.828719 0.16651,-1.828719 0.17855,-2.105798 0.178549,-2.105798 -0.05161,-1.163731 -0.05161,-1.16373 -0.208267,-0.664988 -0.208257,-0.664989 -0.451701,-0.454401 -0.45171,-0.4544016 -0.518286,-0.197936 -0.518294,-0.197938 v -0.479784 -0.479785 l 0.193959,-0.10055 0.19396,-0.10055 0.942058,-0.07678 0.942067,-0.07678 0.942067,-0.165535 0.942067,-0.165535 0.635303,-0.1064627 0.635293,-0.1064625 1.082593,-0.2817271 1.082593,-0.2817261 1.052893,-0.3440373 1.052902,-0.3440364 1.104068,-0.4791571 1.104067,-0.4791562 0.09212,0.092115 0.09212,0.092115 -0.116991,1.6521856 -0.116972,1.6521868 -0.109145,1.5516396 -0.109145,1.551641 -0.105855,1.329977 -0.105846,1.329977 -0.116538,1.551641 -0.116538,1.55164 -0.170451,2.382877 -0.17046,2.382876 -0.108603,1.16373 -0.108594,1.163731 -0.06498,2.826202 -0.06498,2.826202 0.115246,1.052899 0.115246,1.0529 0.233221,0.746669 0.233221,0.746669 0.411608,0.403117 0.411616,0.403119 0.47746,0.206716 0.477469,0.206715 -0.03417,0.472216 -0.03416,0.472217 -0.942067,0.640942 -0.942067,0.640943 -1.198435,1.072237 -1.198444,1.072237 -0.696799,0.780528 -0.696798,0.780529 -0.875555,1.183528 -0.875546,1.183527 -0.304162,0.512507 -0.304171,0.512506 -0.151443,-0.08898 -0.151444,-0.08898 -0.582113,-0.664988 -0.582122,-0.66499 -0.557474,-0.822016 -0.557466,-0.822017 -0.425355,-0.907674 -0.425354,-0.907674 -0.222864,-0.930265 -0.222854,-0.930263 -0.07312,-0.868854 -0.07312,-0.868855 -0.145072,-0.05567 -0.145071,-0.05567 -1.472934,0.832187 -1.472933,0.832188 -1.274555,0.817366 -1.274563,0.817365 -0.886655,0.65747 -0.886654,0.657468 -0.720406,0.607089 -0.720406,0.607088 -1.472996,1.39077 -1.473006,1.390772 z"
       id="path389" /><path
       style="fill:#000000;stroke-width:0.264583"
       id="path289"
       d="" /><g
       aria-label="FORUM (beta)"
       transform="matrix(0.66575782,0,0,0.66575782,-269.51247,-136.63527)"
       id="text521"
       style="white-space:pre;shape-inside:url(#rect523);fill:#c83737"><path
         d="m 684.07183,306.28281 h -1.44 v -2.448 h -8.28 v 5.856 h 5.976 v -2.184 h 1.44 v 5.808 h -1.44 v -2.184 h -5.976 v 7.512 h 2.808 v 1.248 h -7.416 v -1.248 h 2.232 v -15 h -2.232 v -1.248 h 14.328 z"
         style="font-size:24px;fill:#c83737"
         id="path581" /><path
         d="m 703.39185,311.15481 q 0,2.064 -0.648,3.792 -0.672,1.704 -1.944,2.976 -1.176,1.176 -2.64,1.728 -1.44,0.576 -3.264,0.576 -1.776,0 -3.264,-0.576 -1.536,-0.624 -2.64,-1.728 -1.32,-1.32 -1.968,-2.976 -0.624,-1.68 -0.624,-3.792 0,-2.064 0.624,-3.792 0.648,-1.656 1.968,-2.976 1.176,-1.176 2.64,-1.728 1.44,-0.576 3.264,-0.576 3.84,0 6.144,2.496 2.352,2.448 2.352,6.576 z m -2.688,0 q 0,-3.888 -1.464,-5.856 -1.464,-1.968 -4.344,-1.968 -2.856,0 -4.344,1.968 -1.464,1.992 -1.464,5.856 0,3.864 1.464,5.856 1.488,1.968 4.344,1.968 2.856,0 4.344,-1.968 1.464,-1.992 1.464,-5.856 z"
         style="font-size:24px;fill:#c83737"
         id="path583" /><path
         d="m 716.71185,309.66681 q 0.84,-0.84 0.84,-2.592 0,-1.752 -0.84,-2.592 -0.84,-0.84 -2.616,-0.84 h -3.456 v 6.864 h 3.456 q 1.776,0 2.616,-0.84 z m 6.648,10.224 h -4.128 l -2.736,-5.568 q -0.792,-1.632 -1.44,-2.088 -0.672,-0.48 -1.8,-0.48 h -2.616 v 6.888 h 2.472 v 1.248 h -7.08 v -1.248 h 2.232 v -15 h -2.232 v -1.248 h 8.88 q 2.52,0 3.936,1.224 1.392,1.224 1.392,3.456 0,1.8 -1.032,2.832 -1.008,1.032 -3,1.296 0.84,0.216 1.416,0.768 0.624,0.576 1.056,1.488 l 2.544,5.184 h 2.136 z"
         style="font-size:24px;fill:#c83737"
         id="path585" /><path
         d="m 741.91187,303.64281 h -2.232 v 9.288 q 0,4.032 -1.536,5.664 -1.56,1.632 -5.208,1.632 -3.696,0 -5.232,-1.68 -1.584,-1.656 -1.584,-5.616 v -9.288 h -2.232 v -1.248 h 6.84 v 1.248 h -2.232 v 9.048 q 0,3.36 1.08,4.68 1.104,1.32 3.792,1.32 2.688,0 3.792,-1.32 1.08,-1.32 1.08,-4.68 v -9.048 h -2.232 v -1.248 h 5.904 z"
         style="font-size:24px;fill:#c83737"
         id="path587" /><path
         d="m 766.3199,303.64281 h -2.328 v 15 h 2.232 v 1.248 h -6.84 v -1.248 h 2.232 v -13.512 l -6,12.192 h -1.656 l -6,-12.192 v 13.512 h 2.232 v 1.248 h -5.904 v -1.248 h 2.232 v -15 h -2.352 v -1.248 h 5.088 l 6.144,12.456 6.144,-12.456 h 4.776 z"
         style="font-size:24px;fill:#c83737"
         id="path589" /><path
         d="m 672.87583,340.99881 q -1.608,-0.804 -2.196,-1.92 -0.816,-1.584 -0.816,-3.072 v -0.84 q 0,-1.488 0.816,-3.072 0.588,-1.116 2.196,-1.92 v 0.696 q -0.816,0.408 -1.452,1.608 -0.252,0.492 -0.324,1.104 -0.072,0.612 -0.072,1.584 v 0.84 q 0,0.972 0.072,1.584 0.072,0.612 0.324,1.104 0.636,1.2 1.452,1.608 z"
         style="font-family:'DejaVu Math TeX Gyre';-inkscape-font-specification:'DejaVu Math TeX Gyre';fill:#c83737"
         id="path591" /><path
         d="m 678.91183,337.72281 q 0.42,-0.672 0.42,-1.956 0,-1.284 -0.42,-1.944 -0.432,-0.66 -1.26,-0.66 -0.804,0 -1.248,0.588 -0.432,0.612 -0.432,1.716 v 0.612 q 0,1.128 0.432,1.716 0.432,0.588 1.248,0.588 0.828,0 1.26,-0.66 z m 0.96,-4.332 q 0.72,0.912 0.72,2.376 0,1.464 -0.72,2.376 -0.732,0.912 -1.884,0.912 -0.72,0 -1.212,-0.276 -0.504,-0.276 -0.804,-0.864 v 0.972 h -2.112 v -0.624 h 1.032 v -7.872 h -1.032 v -0.624 h 2.112 v 3.864 q 0.3,-0.588 0.804,-0.864 0.492,-0.276 1.212,-0.276 1.152,0 1.884,0.9 z"
         style="font-family:'DejaVu Math TeX Gyre';-inkscape-font-specification:'DejaVu Math TeX Gyre';fill:#c83737"
         id="path593" /><path
         d="m 686.42382,335.26281 q -0.036,-1.08 -0.456,-1.644 -0.432,-0.552 -1.224,-0.552 -0.756,0 -1.176,0.564 -0.432,0.552 -0.516,1.632 z m 1.272,0.624 h -4.644 v 0.048 q 0,1.272 0.468,1.896 0.48,0.648 1.404,0.648 0.72,0 1.164,-0.372 0.456,-0.384 0.636,-1.104 h 0.864 q -0.252,1.02 -0.948,1.536 -0.696,0.516 -1.824,0.516 -1.368,0 -2.196,-0.9 -0.828,-0.9 -0.828,-2.388 0,-1.464 0.816,-2.376 0.804,-0.9 2.136,-0.9 1.416,0 2.172,0.876 0.768,0.876 0.78,2.52 z"
         style="font-family:'DejaVu Math TeX Gyre';-inkscape-font-specification:'DejaVu Math TeX Gyre';fill:#c83737"
         id="path595" /><path
         d="m 693.01181,337.42281 q -0.048,0.84 -0.456,1.248 -0.444,0.384 -1.272,0.384 -0.936,0 -1.32,-0.408 -0.384,-0.444 -0.384,-1.404 v -3.96 h -0.948 v -0.624 h 0.948 v -1.932 h 1.08 v 1.932 h 2.028 v 0.624 h -2.028 v 3.96 q 0,0.792 0.156,1.02 0.156,0.216 0.564,0.216 0.408,0 0.612,-0.252 0.18,-0.24 0.204,-0.804 z"
         style="font-family:'DejaVu Math TeX Gyre';-inkscape-font-specification:'DejaVu Math TeX Gyre';fill:#c83737"
         id="path597" /><path
         d="m 699.9118,338.88681 h -2.04 v -0.672 q -0.372,0.444 -0.828,0.636 -0.48,0.204 -1.092,0.204 -1.044,0 -1.644,-0.552 -0.612,-0.552 -0.612,-1.488 0,-0.984 0.696,-1.5 0.708,-0.528 1.968,-0.528 h 1.512 v -0.432 q 0,-0.708 -0.432,-1.092 -0.432,-0.396 -1.212,-0.396 -0.672,0 -1.02,0.3 -0.384,0.288 -0.48,0.864 h -0.552 v -1.26 q 0.54,-0.228 1.092,-0.36 0.492,-0.12 1.032,-0.12 1.284,0 1.98,0.636 0.672,0.648 0.672,1.872 v 3.264 h 0.96 z m -2.04,-1.956 v -1.32 h -1.392 q -0.792,0 -1.2,0.348 -0.384,0.348 -0.384,1.056 0,0.648 0.396,1.032 0.408,0.384 1.08,0.384 0.66,0 1.092,-0.408 0.408,-0.444 0.408,-1.092 z"
         style="font-family:'DejaVu Math TeX Gyre';-inkscape-font-specification:'DejaVu Math TeX Gyre';fill:#c83737"
         id="path599" /><path
         d="m 703.88381,336.00681 q 0,1.512 -0.804,3.072 -0.576,1.104 -2.196,1.92 v -0.696 q 0.828,-0.42 1.44,-1.608 0.18,-0.336 0.264,-0.804 0.096,-0.48 0.108,-0.852 0.024,-0.372 0.024,-1.032 v -0.84 q 0,-0.66 -0.024,-1.032 -0.012,-0.372 -0.108,-0.84 -0.084,-0.48 -0.264,-0.816 -0.612,-1.188 -1.44,-1.608 v -0.696 q 1.62,0.816 2.196,1.92 0.804,1.56 0.804,3.072 z"
         style="font-family:'DejaVu Math TeX Gyre';-inkscape-font-specification:'DejaVu Math TeX Gyre';fill:#c83737"
         id="path601" /></g></g></svg>
