<?xml version="1.0" encoding="UTF-8" standalone="no"?>
<!-- Created with Inkscape (http://www.inkscape.org/) -->

<svg
   version="1.1"
   id="svg1"
   width="1570.665"
   height="382.66699"
   viewBox="0 0 1570.665 382.66699"
   sodipodi:docname="awesomeware.svg"
   xml:space="preserve"
   inkscape:version="0.0"
   inkscape:export-filename="awesomeware_forum.svg"
   inkscape:export-xdpi="96"
   inkscape:export-ydpi="96"
   xmlns:inkscape="http://www.inkscape.org/namespaces/inkscape"
   xmlns:sodipodi="http://sodipodi.sourceforge.net/DTD/sodipodi-0.dtd"
   xmlns="http://www.w3.org/2000/svg"
   xmlns:svg="http://www.w3.org/2000/svg"><defs
     id="defs1" /><sodipodi:namedview
     id="namedview1"
     pagecolor="#ffffff"
     bordercolor="#000000"
     borderopacity="0.25"
     inkscape:showpageshadow="2"
     inkscape:pageopacity="0.0"
     inkscape:pagecheckerboard="0"
     inkscape:deskcolor="#d1d1d1"
     showgrid="false"
     inkscape:zoom="0.18116848"
     inkscape:cx="-248.38758"
     inkscape:cy="706.52466"
     inkscape:window-width="1920"
     inkscape:window-height="1007"
     inkscape:window-x="0"
     inkscape:window-y="49"
     inkscape:window-maximized="1"
     inkscape:current-layer="g1" /><g
     inkscape:groupmode="layer"
     inkscape:label="Image"
     id="g1"><path
       style="fill:#f9f9f9;fill-opacity:1"
       d="m 0,336.66666 v -46 l 57.666651,0.0173 57.666679,0.0173 20.85906,45.98269 20.85906,45.98269 H 78.525711 0 Z m 511.39913,41.9065 c -16.41025,-5.76182 -28.30798,-16.75364 -35.9185,-33.18361 -1.85396,-4.00241 -3.17627,-7.47167 -2.93848,-7.70947 C 473.18711,337.03512 491.09937,332 492.74882,332 c 0.78318,0 2.37263,1.95 3.53211,4.33333 3.57459,7.34762 11.39792,15.2681 18.6507,18.88231 5.41922,2.70051 8.90745,3.45102 16.03967,3.45102 11.41101,0 16.21969,-2.00027 23.27918,-9.68347 8.88685,-9.67202 9.33696,-20.07246 1.32338,-30.57896 -6.5286,-8.55957 -13.3666,-13.10225 -32.3515,-21.492 -29.2179,-12.9119 -40.34496,-24.72154 -41.59134,-44.14272 -1.1744,-18.29967 6.53658,-31.41319 23.33403,-39.68255 7.73458,-3.80772 10.43445,-4.40903 21.85651,-4.8678 10.45721,-0.42002 14.82443,0.0225 22.10516,2.23996 12.56862,3.82793 29.76275,15.0811 29.72905,19.457 C 578.64507,231.30558 563.56492,244 561.92504,244 c -0.45895,0 -3.24296,-2.06159 -6.18669,-4.58131 -8.23218,-7.04645 -12.93076,-8.75203 -24.11034,-8.75203 -11.26206,0 -17.29155,2.02135 -22.54317,7.55746 -8.13325,8.57384 -7.57616,16.67689 1.72423,25.07923 2.92984,2.64694 14.45205,9.21503 25.60492,14.59577 21.84814,10.5407 31.38297,17.12769 37.41783,25.84956 2.10749,3.04585 4.38845,5.19388 5.06879,4.77341 0.69652,-0.43048 0.87874,-4.64384 0.41704,-9.6433 -1.22194,-13.23164 2.06474,-29.15964 8.83856,-42.83366 4.3058,-8.69195 7.92872,-13.59855 15.75204,-21.33333 11.55558,-11.42482 20.90095,-17.39156 34.97854,-22.33278 13.01051,-4.56668 39.54214,-5.7789 53.74306,-2.45551 28.3884,6.64365 54.34852,29.61189 63.52676,56.20535 2.78327,8.06438 3.17405,11.59916 3.15497,28.5378 -0.0197,17.46903 -0.35706,20.256 -3.49881,28.90154 -9.02099,24.82418 -30.82795,45.92691 -55.79237,53.99063 -12.34974,3.98907 -38.77672,4.91215 -52.59792,1.83722 -24.3174,-5.4101 -48.57424,-24.08638 -58.4567,-45.00807 -4.16022,-8.80739 -6.2991,-8.27701 -6.2991,1.562 0,16.94089 -10.03531,32.28618 -26.38271,40.34259 -8.09651,3.99016 -10.1077,4.40448 -22.91309,4.72023 -11.43866,0.28206 -15.50646,-0.16961 -21.97175,-2.43964 z m 187.90633,-25.7621 c 13.74035,-6.79173 26.55986,-19.37865 32.85563,-32.25948 4.38787,-8.97738 4.5056,-9.65448 4.5056,-25.91295 0,-16.16237 -0.13906,-16.97718 -4.36109,-25.55334 -5.40209,-10.9732 -13.9454,-20.62192 -24.49999,-27.67 -11.54476,-7.7093 -22.47495,-10.74863 -38.65476,-10.74863 -21.47524,0 -35.88464,6.36381 -50.69302,22.38823 -13.43723,14.54066 -19.04961,32.23422 -16.1555,50.93175 2.10522,13.6009 7.16643,23.03372 18.26219,34.03615 16.26466,16.12785 28.39688,20.78657 52.83936,20.29009 14.92839,-0.30322 15.72789,-0.47305 25.90158,-5.50182 z m 126.69457,-25.58973 c -12.46667,-29.76001 -23.26667,-54.13019 -24,-54.15596 -0.73334,-0.0258 -6.85269,21.17399 -13.59857,47.11056 -6.74587,25.93657 -12.91996,49.4074 -13.72019,52.1574 l -1.45495,5 h -9.94648 c -6.03686,0 -9.94648,-0.54847 -9.94648,-1.39536 0,-1.9272 42.40133,-164.04993 43.65529,-166.91729 0.7142,-1.63311 8.26322,15.01757 25.69131,56.66667 16.55928,39.57284 25.32084,58.97931 26.62778,58.97931 1.30971,0 10.04608,-19.48553 26.66678,-59.47736 l 24.71893,-59.47736 18.66413,71.47736 c 10.26527,39.31255 19.25925,71.47736 19.98662,71.47736 0.85254,0 1.4453,-24.05148 1.66806,-67.68213 l 0.34556,-67.68213 52.23462,0.3488 52.23316,0.3488 24.1339,56 c 14.9118,34.60133 24.8286,56 25.952,56 1.1207,0 11.5622,-22.37966 27.2162,-58.33334 13.9689,-32.08333 25.7294,-58.31426 26.1344,-58.29096 0.4051,0.0233 10.5948,22.6733 22.6439,50.33333 32.1838,73.8818 29.2415,67.72851 31.3329,65.52669 0.9939,-1.04632 12.491,-26.65239 25.5492,-56.90239 l 23.7421,-55 h 11.1787 c 6.1482,0 10.9786,0.49377 10.7341,1.09727 -7.1041,17.53909 -71.3365,165.50802 -71.857,165.53325 -0.4102,0.0199 -12.0456,-25.76124 -25.8564,-57.29138 -13.8107,-31.53014 -25.9176,-57.99738 -26.9041,-58.81609 -1.42,-1.17855 -2.3196,-0.27728 -4.3193,4.32753 -17.6462,40.63535 -48.5524,110.05345 -49.3578,110.86206 -0.573,0.57528 -14.4183,-30.02472 -30.7673,-68 -16.349,-37.97529 -30.569,-70.70606 -31.5999,-72.73506 l -1.8743,-3.68908 -34.28606,0.35575 -34.2875,0.35575 V 256 276.66666 l 34.3333,0.35585 34.33196,0.35584 V 288 298.62164 l -34.33196,0.35585 -34.3333,0.35584 v 28 28 l 34.3333,0.35584 34.33196,0.35585 v 10.64415 10.64416 H 978.26334 924.5266 l -13.11261,-51 c -7.21194,-28.05 -13.53585,-51.47543 -14.05313,-52.05651 -0.51728,-0.58108 -1.5412,-0.28108 -2.27537,0.66667 -0.73417,0.94775 -11.17874,25.26276 -23.21016,54.03336 -12.03141,28.7706 -22.1753,52.31995 -22.54197,52.33189 -0.36666,0.0119 -10.86666,-24.3274 -23.33333,-54.08741 z M 202.73841,363.70002 C 198.85456,354.69834 160.34957,269.57239 117.17176,174.53124 73.993941,79.490081 38.66665,1.340086 38.66665,0.864572 38.66665,0.389057 75.266651,0 119.99999,0 h 81.33334 v 154.54237 154.54238 l 3.99486,8.90378 c 2.24696,5.00807 4.68228,8.67464 5.56599,8.38007 0.86412,-0.28804 12.98504,-26.73881 26.93536,-58.77949 13.95033,-32.04068 25.69563,-58.23671 26.10068,-58.21341 0.40504,0.0233 10.59477,22.6733 22.64383,50.33333 32.18385,73.8818 29.24152,67.72851 31.33296,65.52669 0.99386,-1.04632 12.49098,-26.65239 25.54916,-56.90239 l 23.74215,-55 h 55.06751 55.06751 v 10.64416 10.64415 l -34.33333,0.35585 -34.33334,0.35584 V 256 276.66666 l 34.33334,0.35585 34.33333,0.35584 V 288 298.62164 l -34.33333,0.35585 -34.33334,0.35584 v 28 28 l 34.33334,0.35584 34.33333,0.35585 v 10.64415 10.64416 h -45.32223 -45.32223 l -0.34444,-75 c -0.2252,-49.03707 -0.806,-74.93605 -1.67777,-74.81526 -0.73333,0.1016 -16.03333,34.43493 -34,76.29627 -17.96667,41.86135 -33.00232,76.12822 -33.41255,76.1486 -0.41024,0.0204 -12.04562,-25.76033 -25.85639,-57.29047 -13.81078,-31.53014 -25.91763,-57.99738 -26.90411,-58.81609 -1.42007,-1.17855 -2.31963,-0.27728 -4.3193,4.32753 -17.53497,40.37913 -48.54957,110.05058 -49.34519,110.84944 -0.56605,0.56835 -4.20687,-6.33165 -8.09072,-15.33333 z m 1023.92689,12.76004 c 0,-0.48031 17.2186,-38.66447 38.2637,-84.85369 33.7943,-74.17103 38.4249,-83.60816 39.6436,-80.7934 11.0344,25.48636 71.62,155.09848 72.3846,154.85397 0.5727,-0.18317 1.1963,-34.53317 1.3856,-76.33333 l 0.3443,-76.00028 h 23.9235 c 13.1579,0 27.1029,0.66875 30.989,1.48612 17.5889,3.69947 33.2875,15.79845 37.6876,29.04601 3.2121,9.67071 2.3655,26.48795 -1.7332,34.4308 -6.1409,11.9 -15.9569,19.37837 -32.1488,24.49264 -4.0736,1.28667 -7.295,2.83554 -7.1587,3.44192 0.1364,0.60638 10.8004,16.85251 23.6979,36.10251 l 23.4499,35 h -12.493 -12.4931 l -23.1166,-34.72727 c -19.015,-28.56554 -23.6054,-34.65738 -25.8715,-34.33334 -2.6921,0.38498 -2.7629,1.17623 -3.1107,34.76102 l -0.356,34.36708 -20.8997,-0.36708 -20.8998,-0.36708 -9.5326,-20.66666 -9.5326,-20.66667 h -35.7935 -35.7934 l -9.4183,20.96472 -9.4182,20.96473 -11,0.0353 c -6.05,0.0194 -11,-0.35769 -11,-0.83799 z m 102.0571,-60.79478 c 0.7648,-1.99317 -23.8094,-55.81359 -25.5299,-55.9133 -1.471,-0.0853 -27.1934,55.80411 -26.1591,56.83835 0.4086,0.40865 12.0618,0.743 25.8959,0.743 18.9035,0 25.312,-0.41444 25.7931,-1.66805 z m 91.2218,-27.02387 c 21.5279,-2.38754 34.7289,-17.25341 30.8223,-34.70973 -1.8991,-8.48607 -7.5093,-15.38057 -15.7288,-19.32933 -5.3371,-2.56402 -8.6471,-3.07829 -20.3724,-3.16522 l -14,-0.1038 -0.3613,27.96555 c -0.1987,15.38105 -0.053,28.76848 0.3234,29.74985 0.4851,1.26412 2.3396,1.58251 6.3613,1.09213 3.1221,-0.3807 8.9521,-1.05545 12.9555,-1.49945 z m 60.0544,6.69192 v -82 h 45.3333 45.3334 v 10.64416 10.64415 l -34.3334,0.35585 -34.3333,0.35584 V 256 276.66666 l 34.3333,0.35585 34.3334,0.35584 V 288 298.62164 l -34.3334,0.35585 -34.3333,0.35584 v 28 28 l 34.3333,0.35584 34.3334,0.35585 v 10.64415 10.64416 h -45.3334 -45.3333 z M 0,222.02886 v -24.63781 l 17.457788,-39.02886 c 9.601793,-21.46587 17.86599,-39.46306 18.364883,-39.99374 0.68166,-0.7251 53.27593,113.04461 58.24349,125.98987 0.82974,2.16227 -2.11857,2.30834 -46.590192,2.30834 H 0 Z M 0,38.222221 V 0 H 17.475968 C 30.929729,0 34.795794,0.383595 34.273463,1.666667 32.315232,6.4769337 0.96611517,75.416781 0.522281,75.888891 0.235026,76.194441 0,59.244443 0,38.222221 Z"
       id="path1" /><path
       d="m 1408.7012,213.32217 h -7.152 v -34.272 h 19.632 v 5.952 h -12.48 v 8.832 h 11.616 v 5.952 h -11.616 z m 50.304,-17.184 q 0,5.328 -1.776,9.312 -1.728,3.936 -5.328,6.144 -3.6,2.208 -9.216,2.208 -5.568,0 -9.216,-2.208 -3.6,-2.208 -5.376,-6.192 -1.728,-3.984 -1.728,-9.312 0,-5.328 1.728,-9.264 1.776,-3.936 5.376,-6.096 3.648,-2.208 9.264,-2.208 5.568,0 9.168,2.208 3.6,2.16 5.328,6.144 1.776,3.936 1.776,9.264 z m -25.008,0 q 0,5.376 2.064,8.496 2.064,3.072 6.624,3.072 4.656,0 6.672,-3.072 2.016,-3.12 2.016,-8.496 0,-5.424 -2.016,-8.496 -2.016,-3.072 -6.624,-3.072 -4.608,0 -6.672,3.072 -2.064,3.072 -2.064,8.496 z m 42.096,-17.088 q 7.008,0 10.32,2.544 3.36,2.544 3.36,7.728 0,2.352 -0.912,4.128 -0.864,1.728 -2.352,2.976 -1.44,1.2 -3.12,1.968 l 10.08,14.928 h -8.064 l -8.16,-13.152 h -3.888 v 13.152 h -7.248 v -34.272 z m -0.528,5.952 h -2.208 v 9.264 h 2.352 q 3.6,0 5.136,-1.2 1.584,-1.2 1.584,-3.552 0,-2.448 -1.68,-3.456 -1.632,-1.056 -5.184,-1.056 z m 50.112,16.224 q 0,3.552 -1.584,6.432 -1.536,2.832 -4.704,4.512 -3.12,1.632 -7.92,1.632 -6.816,0 -10.368,-3.456 -3.552,-3.504 -3.552,-9.216 v -22.08 h 7.248 v 20.976 q 0,4.224 1.728,5.952 1.728,1.728 5.136,1.728 3.552,0 5.136,-1.872 1.632,-1.872 1.632,-5.856 v -20.928 h 7.248 z m 22.896,12.096 -8.256,-26.88 h -0.192 q 0.048,0.96 0.144,2.88 0.096,1.92 0.192,4.128 0.096,2.16 0.096,3.936 v 15.936 h -6.48 v -34.272 h 9.888 l 8.112,26.208 h 0.144 l 8.592,-26.208 h 9.888 v 34.272 h -6.768 v -16.224 q 0,-1.632 0.048,-3.744 0.096,-2.112 0.144,-3.984 0.096,-1.92 0.144,-2.88 h -0.192 l -8.832,26.832 z"
       id="text1"
       style="font-weight:bold;font-size:48px;font-family:'Noto Sans';-inkscape-font-specification:'Noto Sans Bold';fill:#ff0000"
       aria-label="FORUM" /></g></svg>
